<?xml version="1.0" encoding="UTF-8" standalone="no"?>
<svg width="288px" height="298px" viewBox="0 0 288 298" version="1.1" xmlns="http://www.w3.org/2000/svg" xmlns:xlink="http://www.w3.org/1999/xlink">
    <!-- Generator: Sketch 39.1 (31720) - http://www.bohemiancoding.com/sketch -->
    <title>Group 4</title>
    <desc>Created with Sketch.</desc>
    <defs>
        <radialGradient cx="-85.4829101%" cy="61.7819599%" fx="-85.4829101%" fy="61.7819599%" r="175.383614%" id="radialGradient-1">
            <stop stop-color="#FF8602" offset="0%"></stop>
            <stop stop-color="#FFA102" offset="100%"></stop>
        </radialGradient>
    </defs>
    <g id="Page-1" stroke="none" stroke-width="1" fill="none" fill-rule="evenodd">
        <g id="Desktop-HD-Copy" transform="translate(-806.000000, -1397.000000)">
            <g id="Group" transform="translate(636.000000, 993.000000)">
                <g id="Group-4" transform="translate(170.000000, 404.000000)">
                    <g id="smartwatch" transform="translate(228.083871, 214.000000)" fill="#FFFFFF">
                        <g id="Layer_1">
                            <g id="Group">
                                <path d="M46.3346266,28.896536 L43.0562332,28.896536 L43.0562332,18.2889468 C43.0562332,15.5612601 41.0634072,13.2928455 38.4631312,12.8727849 L37.1954858,7.78099584 C37.073821,7.2924615 36.6367019,6.94979979 36.1353262,6.94979979 L32.4633799,6.94979979 L32.3759561,5.41689342 C32.2059168,2.43008894 29.6436702,0 26.6642663,0 L16.4648202,0 C13.4854162,0 10.9231697,2.43008894 10.7531303,5.41689342 L10.6658522,6.94979979 L6.99390591,6.94979979 C6.49253028,6.94979979 6.05541116,7.2924615 5.93374634,7.78099584 L4.66610089,12.8727849 C2.06567925,13.2928455 0.0728531865,15.5612601 0.0728531865,18.2889468 L0.0728531865,50.4774932 C0.0728531865,53.2051799 2.06567925,55.4735945 4.66595518,55.8936551 L5.93360063,60.9854442 C6.05526545,61.4739785 6.49238457,61.8166402 6.9937602,61.8166402 L10.6657065,61.8166402 L10.7528389,63.3495466 C10.9231697,66.3363511 13.4854162,68.76644 16.4648202,68.76644 L26.6642663,68.76644 C29.6436702,68.76644 32.2059168,66.3363511 32.3759561,63.3495466 L32.4630885,61.8166402 L36.1351805,61.8166402 C36.6365561,61.8166402 37.0736753,61.4739785 37.1953401,60.9854442 L38.4629855,55.8936551 C41.0634072,55.4735945 43.0562332,53.2051799 43.0562332,50.4774932 L43.0562332,39.8699041 L46.3346266,39.8699041 C46.9382881,39.8699041 47.4274244,39.3785898 47.4274244,38.7725672 L47.4274244,29.9938728 C47.4274244,29.3878502 46.9382881,28.896536 46.3346266,28.896536 L46.3346266,28.896536 Z M35.2820697,9.14447341 L36.1927345,12.8022628 L32.7961733,12.8022628 L32.5881046,9.14447341 L35.2820697,9.14447341 L35.2820697,9.14447341 Z M12.9350833,5.54213613 C13.0383891,3.72757998 14.6548556,2.19467362 16.4648202,2.19467362 L26.6642663,2.19467362 C28.4742308,2.19467362 30.0906973,3.72757998 30.1940032,5.54213613 L30.6070807,12.8022628 L12.5220057,12.8022628 L12.9350833,5.54213613 L12.9350833,5.54213613 Z M7.84701672,9.14447341 L10.5409819,9.14447341 L10.3329132,12.8022628 L6.93635189,12.8022628 L7.84701672,9.14447341 L7.84701672,9.14447341 Z M7.84701672,59.6219666 L6.93635189,55.9641773 L10.3329132,55.9641773 L10.5409819,59.6219666 L7.84701672,59.6219666 L7.84701672,59.6219666 Z M30.1940032,63.2243039 C30.0906973,65.03886 28.4742308,66.5717664 26.6642663,66.5717664 L16.4648202,66.5717664 C14.6548556,66.5717664 13.0383891,65.03886 12.9350833,63.2243039 L12.5220057,55.9641773 L30.6070807,55.9641773 L30.1940032,63.2243039 L30.1940032,63.2243039 Z M35.2820697,59.6219666 L32.5881046,59.6219666 L32.7961733,55.9641773 L36.1927345,55.9641773 L35.2820697,59.6219666 L35.2820697,59.6219666 Z M40.8706376,50.4774932 C40.8706376,52.2926346 39.3998775,53.7695036 37.5922442,53.7695036 L5.53684218,53.7695036 C3.72920891,53.7695036 2.25844878,52.2926346 2.25844878,50.4774932 L2.25844878,18.2889468 C2.25844878,16.474537 3.72789755,14.9982532 5.53451087,14.9969364 L31.7622408,14.9969364 L37.5884559,14.9969364 C39.4011889,14.9982532 40.8706376,16.474537 40.8706376,18.2889468 L40.8706376,50.4774932 L40.8706376,50.4774932 Z M45.2418288,37.6752304 L43.0562332,37.6752304 L43.0562332,31.0912096 L45.2418288,31.0912096 L45.2418288,37.6752304 L45.2418288,37.6752304 Z" id="Shape"></path>
                                <path d="M37.5922442,17.19161 L5.53684218,17.19161 C4.93318067,17.19161 4.44404438,17.6829243 4.44404438,18.2889468 L4.44404438,50.4774932 C4.44404438,51.0835158 4.93318067,51.57483 5.53684218,51.57483 L11.3650971,51.57483 C11.9687586,51.57483 12.4578949,51.0835158 12.4578949,50.4774932 C12.4578949,49.8714707 11.9687586,49.3801564 11.3650971,49.3801564 L6.62963997,49.3801564 L6.62963997,19.3862836 L36.4994464,19.3862836 L36.4994464,49.3801564 L15.7362883,49.3801564 C15.1326268,49.3801564 14.6434905,49.8714707 14.6434905,50.4774932 C14.6434905,51.0835158 15.1326268,51.57483 15.7362883,51.57483 L37.5922442,51.57483 C38.1959057,51.57483 38.685042,51.0835158 38.685042,50.4774932 L38.685042,18.2889468 C38.685042,17.6829243 38.1959057,17.19161 37.5922442,17.19161 L37.5922442,17.19161 Z" id="Shape"></path>
                                <path d="M15.7362883,40.6014619 L27.3927981,40.6014619 C27.9964596,40.6014619 28.4855959,40.1101477 28.4855959,39.5041251 C28.4855959,38.8981026 27.9964596,38.4067883 27.3927981,38.4067883 L15.7362883,38.4067883 C15.1326268,38.4067883 14.6434905,38.8981026 14.6434905,39.5041251 C14.6434905,40.1101477 15.1326268,40.6014619 15.7362883,40.6014619 L15.7362883,40.6014619 Z" id="Shape"></path>
                                <path d="M15.7362883,30.3596517 L27.3927981,30.3596517 C27.9964596,30.3596517 28.4855959,29.8683374 28.4855959,29.2623149 C28.4855959,28.6562924 27.9964596,28.1649781 27.3927981,28.1649781 L15.7362883,28.1649781 C15.1326268,28.1649781 14.6434905,28.6562924 14.6434905,29.2623149 C14.6434905,29.8683374 15.1326268,30.3596517 15.7362883,30.3596517 L15.7362883,30.3596517 Z" id="Shape"></path>
                            </g>
                        </g>
                    </g>
                    <g id="share" transform="translate(11.000000, 5.969331)" fill="url(#radialGradient-1)">
                        <g id="Capa_1">
                            <g id="Group" transform="translate(10.933616, 29.164057)">
                                <path d="M202.067622,16.0823743 C199.652363,14.5992201 196.517122,15.3510259 195.041415,17.7547585 C193.560601,20.1636055 194.31122,23.3089153 196.71116,24.7920695 C233.282159,47.3462419 255.116505,86.4401409 255.116505,129.380012 C255.116505,139.951321 253.73271,150.537974 251.00597,160.843338 C250.285988,163.569273 251.909777,166.371923 254.636517,167.098158 C255.070549,167.210673 255.514793,167.26693 255.943719,167.26693 C258.20579,167.26693 260.273823,165.75309 260.876361,163.461873 C263.832883,152.302416 265.329015,140.8361 265.329015,129.380012 C265.329015,82.8652278 241.681948,40.5083896 202.067622,16.0823743 L202.067622,16.0823743 Z" id="Shape"></path>
                                <path d="M179.395849,242.825965 C164.511116,248.993841 148.758319,252.123808 132.566384,252.123808 C98.2115005,252.123808 65.2199867,237.527525 42.0426951,212.068416 C40.1431682,209.981771 36.9211213,209.833456 34.8275567,211.735985 C32.7442047,213.638513 32.5961233,216.875881 34.4956502,218.962526 C59.6031062,246.533851 95.3468914,262.352457 132.566384,262.352457 C150.10637,262.352457 167.176581,258.96166 183.302134,252.272123 C185.906325,251.193001 187.147144,248.201121 186.069725,245.587701 C184.992305,242.984509 182.000039,241.746843 179.395849,242.825965 L179.395849,242.825965 Z" id="Shape"></path>
                                <path d="M103.379031,10.1497575 C106.12109,9.47466663 107.795941,6.7078169 107.127022,3.9665388 C106.463209,1.2252607 103.685406,-0.442009194 100.958666,0.212624383 C44.7490103,13.9701581 4.25130158,62.0652688 0.176510057,119.898054 C-0.0226338892,122.716047 2.09646195,125.160694 4.91000848,125.355038 C5.0325586,125.365267 5.15510872,125.370381 5.27255258,125.370381 C7.93291146,125.370381 10.1694512,123.314423 10.3634889,120.614059 C14.1267988,67.2409655 51.5045857,22.8435117 103.379031,10.1497575 L103.379031,10.1497575 Z" id="Shape"></path>
                            </g>
                        </g>
                    </g>
                    <g id="devices" transform="translate(138.000000, 0.133419)" fill="#FFFFFF">
                        <path d="M64.4093404,21.1693227 L64.4093404,4.82445935 C64.4093404,2.20778849 62.285714,0.0788968136 59.6755147,0.0788968136 L4.73382565,0.0788968136 C2.12347987,0.0788968136 0,2.20778849 0,4.82445935 L0,38.1212654 C0,40.7379363 2.12362643,42.866828 4.73382565,42.866828 L20.3045946,42.866828 L18.5221554,44.7900296 L15.8517208,44.7900296 C15.2446773,44.7900296 14.7525353,45.2833918 14.7525353,45.8919404 C14.7525353,46.5004891 15.2446773,46.9938513 15.8517208,46.9938513 L31.1466675,46.9938513 L31.1466675,57.6212667 C31.1466675,59.1564489 32.3925576,60.405575 33.9240895,60.405575 L45.7406269,60.405575 C47.2720122,60.405575 48.5180489,59.1565958 48.5180489,57.6212667 L48.5180489,55.3830655 L63.3116204,55.3830655 C65.3877621,55.3830655 67.0766973,53.6892082 67.0766973,51.6071845 L67.0766973,24.7807986 C67.0766973,23.081946 65.9520106,21.641969 64.4093404,21.1693227 L64.4093404,21.1693227 Z M64.8783262,24.7807986 L64.8783262,25.0818407 L39.5985248,25.0818407 L39.5985248,24.7807986 C39.5985248,23.9139621 40.3020035,23.2087392 41.1666961,23.2087392 L63.3116204,23.2087392 C64.1755803,23.2088861 64.8783262,23.9141091 64.8783262,24.7807986 L64.8783262,24.7807986 Z M45.7406269,34.0903288 L39.5985248,34.0903288 L39.5985248,27.2856623 L64.8783262,27.2856623 L64.8783262,49.1021739 L48.5180489,49.1021739 L48.5180489,36.8744901 C48.5180489,35.339308 47.2720122,34.0903288 45.7406269,34.0903288 L45.7406269,34.0903288 Z M46.3196779,38.3229886 L33.3451851,38.3229886 L33.3451851,36.874637 C33.3451851,36.5546421 33.604886,36.2941504 33.924236,36.2941504 L45.7407735,36.2941504 C46.059977,36.2941504 46.3198244,36.5544952 46.3198244,36.874637 L46.3198244,38.3229886 L46.3196779,38.3229886 Z M62.2108228,5.92637015 L62.2108228,21.0049176 L41.1665496,21.0049176 C39.0896752,21.0049176 37.4000072,22.6987749 37.4000072,24.7807986 L37.4000072,34.0903288 L33.9239429,34.0903288 C32.3937301,34.0903288 31.1487193,35.337398 31.146814,36.870964 L2.19822448,36.870964 L2.19822448,5.92637015 L62.2108228,5.92637015 L62.2108228,5.92637015 Z M33.344892,40.5268102 L46.3193848,40.5268102 L46.3193848,53.9693874 L33.344892,53.9693874 L33.344892,40.5268102 L33.344892,40.5268102 Z M4.73367909,2.28271842 L59.6753682,2.28271842 C60.679291,2.28271842 61.5461819,2.87216724 61.9565445,3.72254854 L2.45235618,3.72254854 C2.86286533,2.87216724 3.72975631,2.28271842 4.73367909,2.28271842 L4.73367909,2.28271842 Z M2.38508602,39.0749325 L31.1466675,39.0749325 L31.1466675,40.6631533 L4.73367909,40.6631533 C3.67215899,40.6630064 2.76217994,40.0049452 2.38508602,39.0749325 L2.38508602,39.0749325 Z M21.5229319,44.7900296 L23.3053711,42.866828 L31.1466675,42.866828 L31.1466675,44.7900296 L21.5229319,44.7900296 L21.5229319,44.7900296 Z M45.7404804,58.2019003 L33.9239429,58.2019003 C33.6047394,58.2019003 33.344892,57.9415555 33.344892,57.6214137 L33.344892,56.173209 L46.3193848,56.173209 L46.3193848,57.6214137 C46.3195313,57.9414086 46.0596839,58.2019003 45.7404804,58.2019003 L45.7404804,58.2019003 Z M63.3114739,53.1793908 L48.5179024,53.1793908 L48.5179024,51.3061425 L64.8781797,51.3061425 L64.8781797,51.6073314 C64.8781797,52.474021 64.1754337,53.1793908 63.3114739,53.1793908 L63.3114739,53.1793908 Z" id="Shape"></path>
                    </g>
                    <g id="smart-home" transform="translate(0.000000, 176.000000)" fill="#FFFFFF">
                        <path d="M56.6086188,25.2873364 L29.2160272,0.27728972 C28.8112426,-0.0923831776 28.1888985,-0.0923831776 27.7841139,0.27728972 L0.391381188,25.2873364 C0.0702623762,25.5806075 -0.0369653465,26.0394393 0.121336634,26.4433178 C0.279779703,26.8470561 0.671160891,27.1129907 1.10726733,27.1129907 L7.45712376,27.1129907 L7.45712376,58.9485981 C7.45712376,59.5292523 7.93090099,60 8.51529208,60 L48.4845668,60 C49.0689579,60 49.5427351,59.5292523 49.5427351,58.9485981 L49.5427351,27.1128505 L55.8925916,27.1128505 C56.328698,27.1128505 56.7202203,26.8470561 56.8785223,26.4431776 C57.0369653,26.0394393 56.9297376,25.5804673 56.6086188,25.2873364 L56.6086188,25.2873364 Z M28.2883663,15.3504673 C28.2883663,14.963972 28.6048292,14.6495327 28.9938119,14.6495327 C29.3827946,14.6495327 29.6992574,14.963972 29.6992574,15.3504673 C29.6992574,15.7369626 29.3827946,16.0514019 28.9938119,16.0514019 C28.6048292,16.0514019 28.2883663,15.7369626 28.2883663,15.3504673 L28.2883663,15.3504673 Z M48.4845668,25.0100467 C47.9001757,25.0100467 47.4263985,25.4807944 47.4263985,26.0614486 L47.4263985,57.8971963 L39.1381188,57.8971963 L39.1381188,47.7486449 L42.0166188,44.8885514 C42.3270149,45.0054673 42.6618193,45.0724766 43.0129901,45.0724766 C44.5689208,45.0724766 45.8347723,43.8147196 45.8347723,42.2687383 C45.8347723,40.722757 44.5689208,39.465 43.0129901,39.465 C41.4570594,39.465 40.1912079,40.722757 40.1912079,42.2687383 C40.1912079,42.6947664 40.2901114,43.0973832 40.462099,43.459486 L37.331755,46.5698131 C37.1332426,46.7669159 37.0217822,47.0343925 37.0217822,47.3132243 L37.0217822,57.8971963 L34.6373762,57.8971963 L34.6373762,35.6925701 L36.592448,33.75 C36.943901,33.9064486 37.3320371,33.9954673 37.7413366,33.9954673 C39.2972673,33.9954673 40.5631188,32.7377103 40.5631188,31.191729 C40.5631188,29.6457477 39.2972673,28.3879907 37.7413366,28.3879907 C36.1854059,28.3879907 34.9195545,29.6457477 34.9195545,31.191729 C34.9195545,31.5605607 34.9934851,31.9121495 35.1242748,32.235 L32.8308713,34.5137383 C32.6323589,34.7108411 32.5208985,34.9783178 32.5208985,35.2571495 L32.5208985,57.8971963 L30.0519802,57.8971963 L30.0519802,17.9478505 C31.0847525,17.5309346 31.8155941,16.5246729 31.8155941,15.3504673 C31.8155941,13.804486 30.5497426,12.546729 28.9938119,12.546729 C27.4378812,12.546729 26.1720297,13.804486 26.1720297,15.3504673 C26.1720297,16.5245327 26.9028713,17.5307944 27.9356436,17.9478505 L27.9356436,57.8971963 L25.4665842,57.8971963 L25.4665842,29.6196729 C25.4665842,29.3408411 25.3551238,29.0733645 25.1566114,28.8762617 L23.0174183,26.7507477 C23.2094406,26.372243 23.3201955,25.9463551 23.3201955,25.4943925 C23.3201955,23.9484112 22.0543441,22.6906542 20.4984134,22.6906542 C18.9424827,22.6906542 17.6766312,23.9484112 17.6766312,25.4943925 C17.6766312,27.0403738 18.9424827,28.2981308 20.4984134,28.2981308 C20.8226361,28.2981308 21.1328911,28.2407944 21.4231114,28.1404206 L23.3502475,30.0553738 L23.3502475,57.8971963 L20.8811881,57.8971963 L20.8811881,41.7056075 C20.8811881,41.4267757 20.7697277,41.1592991 20.5712153,40.9621963 L17.4408713,37.8518692 C17.6127178,37.4899065 17.7117624,37.0872897 17.7117624,36.6612617 C17.7117624,35.1152804 16.4459109,33.8575234 14.8899802,33.8575234 C13.3340495,33.8575234 12.068198,35.1152804 12.068198,36.6612617 C12.068198,38.207243 13.3340495,39.465 14.8899802,39.465 C15.241151,39.465 15.5759554,39.3979907 15.8863515,39.2810748 L18.7648515,42.1411682 L18.7648515,57.8971963 L9.57360149,57.8971963 L9.57360149,26.0614486 C9.57360149,25.4807944 9.09982426,25.0100467 8.51543317,25.0100467 L3.82280941,25.0100467 L28.5,2.47934579 L53.1771906,25.0101869 L48.4845668,25.0101869 L48.4845668,25.0100467 Z M42.3075446,42.2684579 C42.3075446,41.8819626 42.6240074,41.5675234 43.0129901,41.5675234 C43.4019728,41.5675234 43.7184356,41.8819626 43.7184356,42.2684579 C43.7184356,42.6549533 43.4019728,42.9693925 43.0129901,42.9693925 C42.6240074,42.9693925 42.3075446,42.6549533 42.3075446,42.2684579 L42.3075446,42.2684579 Z M37.0358911,31.1914486 C37.0358911,30.8049533 37.352354,30.490514 37.7413366,30.490514 C38.1303193,30.490514 38.4467822,30.8049533 38.4467822,31.1914486 C38.4467822,31.5779439 38.1303193,31.8923832 37.7413366,31.8923832 C37.352354,31.8923832 37.0358911,31.5779439 37.0358911,31.1914486 L37.0358911,31.1914486 Z M20.4984134,26.1951869 C20.1094307,26.1951869 19.7929678,25.8807477 19.7929678,25.4942523 C19.7929678,25.107757 20.1094307,24.7933178 20.4984134,24.7933178 C20.887396,24.7933178 21.2038589,25.107757 21.2038589,25.4942523 C21.2038589,25.8807477 20.887396,26.1951869 20.4984134,26.1951869 L20.4984134,26.1951869 Z M14.8899802,37.3619159 C14.5009975,37.3619159 14.1845347,37.0474766 14.1845347,36.6609813 C14.1845347,36.274486 14.5009975,35.9600467 14.8899802,35.9600467 C15.2789629,35.9600467 15.5954257,36.274486 15.5954257,36.6609813 C15.5954257,37.0474766 15.2789629,37.3619159 14.8899802,37.3619159 L14.8899802,37.3619159 Z" id="Shape"></path>
                    </g>
                </g>
            </g>
        </g>
    </g>
</svg>