<?xml version="1.0" encoding="UTF-8" standalone="no"?>
<svg width="272px" height="352px" viewBox="0 0 272 352" version="1.1" xmlns="http://www.w3.org/2000/svg" xmlns:xlink="http://www.w3.org/1999/xlink">
    <!-- Generator: Sketch 39.1 (31720) - http://www.bohemiancoding.com/sketch -->
    <title>open-box</title>
    <desc>Created with Sketch.</desc>
    <defs>
        <path d="M248.983118,209.374825 L214.18076,190.718361 L241.976611,171.983508 C243.552933,170.9217 244.445849,169.102374 244.323278,167.206085 C244.200707,165.309796 243.080464,163.62088 241.380146,162.770721 L162.988078,123.564354 C161.33123,122.735574 159.36154,122.823939 157.783081,123.800945 L125.901763,143.549147 L94.0204459,123.800945 C92.4434117,122.823939 90.4730097,122.735574 88.8154492,123.564354 L10.4226685,162.771434 C8.72235061,163.621593 7.60210761,165.310509 7.4795365,167.206798 C7.35696538,169.103087 8.24988171,170.9217 9.82620328,171.984221 L37.6220545,190.719074 L2.81969619,209.375538 C1.11937826,210.286982 0.0426052502,212.043597 0.00127312943,213.971955 C-0.0407716141,215.900312 0.961176003,217.70111 2.62016182,218.684529 L80.2639759,264.693593 C81.1027329,265.191004 82.0448202,265.440422 82.9883328,265.440422 C83.8555947,265.440422 84.7242818,265.229485 85.5138679,264.806187 L120.557093,246.020738 L120.557093,325.7561 L53.0432113,291.920771 L53.0432113,261.087009 C53.0432113,258.135326 50.6509366,255.742338 47.6985405,255.742338 C44.7461443,255.742338 42.3538697,258.135326 42.3538697,261.087009 L42.3538697,295.220215 C42.3538697,297.242638 43.496204,299.092607 45.304128,299.99835 L123.506638,339.189752 C123.557235,339.214694 123.609969,339.23251 123.660565,339.256026 C123.743942,339.294508 123.827319,339.330139 123.912121,339.364345 C124.044669,339.417792 124.177929,339.464112 124.312615,339.506157 C124.394566,339.531811 124.475805,339.558178 124.559182,339.579557 C124.705982,339.618039 124.854208,339.646543 125.003146,339.671485 C125.078684,339.684312 125.152797,339.701415 125.229048,339.71068 C125.429295,339.736334 125.630967,339.749874 125.832639,339.752012 C125.856868,339.752012 125.880385,339.757 125.904614,339.757 C126.131941,339.757 126.35998,339.738472 126.588019,339.708542 C126.644316,339.701415 126.699901,339.688588 126.756911,339.679324 C126.923665,339.652244 127.089706,339.618751 127.255034,339.575281 C127.331997,339.555328 127.406823,339.531099 127.483073,339.507582 C127.624885,339.463399 127.765272,339.413516 127.904946,339.356506 C127.988323,339.323013 128.070275,339.288094 128.152226,339.250325 C128.199972,339.228234 128.24843,339.212556 128.295463,339.18904 L206.497974,299.997638 C208.305898,299.091894 209.448232,297.241925 209.448232,295.219502 L209.448232,261.086296 C209.448232,258.134613 207.055957,255.741626 204.103561,255.741626 C201.151165,255.741626 198.75889,258.134613 198.75889,261.086296 L198.75889,291.920059 L131.245722,325.753963 L131.245722,246.019313 L166.288946,264.804762 C167.078532,265.22806 167.94722,265.438996 168.814482,265.438996 C169.757994,265.438996 170.700081,265.189578 171.538838,264.692168 L249.182652,218.683104 C250.841638,217.700397 251.842873,215.898887 251.801541,213.970529 C251.760922,212.042172 250.683436,210.28627 248.983118,209.374825 L248.983118,209.374825 Z M125.901763,230.877505 L58.9237744,191.189405 L125.901763,155.878234 L192.879753,191.189405 L125.901763,230.877505 L125.901763,230.877505 Z M160.875151,134.459644 L228.411124,168.236538 L203.767916,184.845637 L136.653103,149.462491 L160.875151,134.459644 L160.875151,134.459644 Z M90.9276631,134.459644 L115.148998,149.463203 L48.0341858,184.846349 L23.3916904,168.236538 L90.9276631,134.459644 L90.9276631,134.459644 Z M83.1194554,253.959356 L16.2219927,214.318289 L48.1261141,197.215343 L115.023577,236.855697 L83.1194554,253.959356 L83.1194554,253.959356 Z M168.683359,253.959356 L136.779237,236.85641 L203.6767,197.216055 L235.580822,214.319002 L168.683359,253.959356 L168.683359,253.959356 Z" id="path-1"></path>
        <filter x="-50%" y="-50%" width="200%" height="200%" filterUnits="objectBoundingBox" id="filter-2">
            <feOffset dx="0" dy="2" in="SourceAlpha" result="shadowOffsetOuter1"></feOffset>
            <feGaussianBlur stdDeviation="5" in="shadowOffsetOuter1" result="shadowBlurOuter1"></feGaussianBlur>
            <feColorMatrix values="0 0 0 0 1   0 0 0 0 1   0 0 0 0 1  0 0 0 0.5 0" type="matrix" in="shadowBlurOuter1"></feColorMatrix>
        </filter>
        <path d="M29.5467638,32.9441901 C29.1723809,32.3176056 28.3595106,32.1121479 27.731183,32.4855634 L12.3021894,41.6473592 C11.9011404,41.8853873 11.6553191,42.3163732 11.6553191,42.7816901 C11.6553191,43.247007 11.9011404,43.677993 12.3020128,43.9160211 L27.7310064,53.0778169 C27.9434511,53.2040493 28.1769106,53.2640845 28.4075447,53.2640845 C28.8589234,53.2640845 29.299,53.0338028 29.5465872,52.6191901 C29.9209702,51.9926056 29.714883,51.1822183 29.0865553,50.8091549 L15.5679745,42.7816901 L29.0865553,34.7542254 C29.7150596,34.381162 29.9211468,33.5707746 29.5467638,32.9441901 L29.5467638,32.9441901 Z" id="path-3"></path>
        <filter x="-50%" y="-50%" width="200%" height="200%" filterUnits="objectBoundingBox" id="filter-4">
            <feOffset dx="0" dy="2" in="SourceAlpha" result="shadowOffsetOuter1"></feOffset>
            <feGaussianBlur stdDeviation="2" in="shadowOffsetOuter1" result="shadowBlurOuter1"></feGaussianBlur>
            <feColorMatrix values="0 0 0 0 1   0 0 0 0 1   0 0 0 0 1  0 0 0 0.5 0" type="matrix" in="shadowBlurOuter1"></feColorMatrix>
        </filter>
        <path d="M53.4534128,52.6191901 C53.7011766,53.0339789 54.1410766,53.2640845 54.5924553,53.2640845 C54.8230894,53.2640845 55.0565489,53.2040493 55.2689936,53.0778169 L70.6979872,43.9160211 C71.0990362,43.6778169 71.3446809,43.247007 71.3446809,42.7816901 C71.3446809,42.3163732 71.0988596,41.8853873 70.6979872,41.6473592 L55.2689936,32.4855634 C54.640666,32.1123239 53.8274426,32.3176056 53.4534128,32.9441901 C53.0790298,33.5707746 53.285117,34.381162 53.9134447,34.7542254 L67.4320255,42.7816901 L53.9134447,50.8091549 C53.2849404,51.1822183 53.0788532,51.9926056 53.4534128,52.6191901 L53.4534128,52.6191901 Z" id="path-5"></path>
        <filter x="-50%" y="-50%" width="200%" height="200%" filterUnits="objectBoundingBox" id="filter-6">
            <feOffset dx="0" dy="2" in="SourceAlpha" result="shadowOffsetOuter1"></feOffset>
            <feGaussianBlur stdDeviation="2" in="shadowOffsetOuter1" result="shadowBlurOuter1"></feGaussianBlur>
            <feColorMatrix values="0 0 0 0 1   0 0 0 0 1   0 0 0 0 1  0 0 0 0.5 0" type="matrix" in="shadowBlurOuter1"></feColorMatrix>
        </filter>
        <path d="M46.5718298,32.8838028 L34.2290234,51.2073944 C33.8212638,51.8126761 33.9828489,52.6330986 34.5901617,53.0397887 C34.8169106,53.1915493 35.0735043,53.2640845 35.3274489,53.2640845 C35.7539277,53.2640845 36.1726362,53.0589789 36.4281702,52.6795775 L48.7709766,34.3559859 C49.1787362,33.7507042 49.0171511,32.9302817 48.4098383,32.5235915 C47.8021723,32.1170775 46.9794128,32.2785211 46.5718298,32.8838028 L46.5718298,32.8838028 Z" id="path-7"></path>
        <filter x="-50%" y="-50%" width="200%" height="200%" filterUnits="objectBoundingBox" id="filter-8">
            <feOffset dx="0" dy="2" in="SourceAlpha" result="shadowOffsetOuter1"></feOffset>
            <feGaussianBlur stdDeviation="2" in="shadowOffsetOuter1" result="shadowBlurOuter1"></feGaussianBlur>
            <feColorMatrix values="0 0 0 0 1   0 0 0 0 1   0 0 0 0 1  0 0 0 0.5 0" type="matrix" in="shadowBlurOuter1"></feColorMatrix>
        </filter>
    </defs>
    <g id="Page-1" stroke="none" stroke-width="1" fill="none" fill-rule="evenodd">
        <g id="Desktop-HD-Copy" transform="translate(-824.000000, -3505.000000)">
            <g id="Group-14-Copy" transform="translate(636.000000, 3231.000000)">
                <g id="open-box" transform="translate(198.000000, 274.000000)">
                    <g id="Capa_1">
                        <g id="Shape">
                            <use fill="black" fill-opacity="1" filter="url(#filter-2)" xlink:href="#path-1"></use>
                            <use fill="#FFFFFF" fill-rule="evenodd" xlink:href="#path-1"></use>
                        </g>
                        <g id="coding" transform="translate(125.500000, 53.500000) rotate(-330.000000) translate(-125.500000, -53.500000) translate(84.000000, 16.000000)">
                            <g id="Group" transform="translate(-0.000000, -0.000000)">
                                <g id="Shape">
                                    <use fill="black" fill-opacity="1" filter="url(#filter-4)" xlink:href="#path-3"></use>
                                    <use fill="#FFFFFF" fill-rule="evenodd" xlink:href="#path-3"></use>
                                </g>
                                <g id="Shape">
                                    <use fill="black" fill-opacity="1" filter="url(#filter-6)" xlink:href="#path-5"></use>
                                    <use fill="#FFFFFF" fill-rule="evenodd" xlink:href="#path-5"></use>
                                </g>
                                <g id="Shape">
                                    <use fill="black" fill-opacity="1" filter="url(#filter-8)" xlink:href="#path-7"></use>
                                    <use fill="#FFFFFF" fill-rule="evenodd" xlink:href="#path-7"></use>
                                </g>
                                <path d="M81.6755319,0.088028169 L1.32446809,0.088028169 C0.592831915,0.088028169 5.68434189e-14,0.679225352 5.68434189e-14,1.4084507 L5.68434189e-14,73.5915493 C5.68434189e-14,74.3207746 0.592831915,74.9119718 1.32446809,74.9119718 L81.6755319,74.9119718 C82.4071681,74.9119718 83,74.3207746 83,73.5915493 L83,59.5070423 C83,58.7778169 82.4071681,58.1866197 81.6755319,58.1866197 C80.9438957,58.1866197 80.3510638,58.7778169 80.3510638,59.5070423 L80.3510638,72.2711268 L2.64893617,72.2711268 L2.64893617,13.2922535 L80.3510638,13.2922535 L80.3510638,54.2253521 C80.3510638,54.9545775 80.9438957,55.5457746 81.6755319,55.5457746 C82.4071681,55.5457746 83,54.9545775 83,54.2253521 L83,1.4084507 C83,0.679225352 82.4071681,0.088028169 81.6755319,0.088028169 L81.6755319,0.088028169 Z M2.64893617,2.72887324 L51.6542553,2.72887324 L51.6542553,10.6514085 L2.64893617,10.6514085 L2.64893617,2.72887324 L2.64893617,2.72887324 Z M54.3031915,10.6514085 L54.3031915,2.72887324 L80.3510638,2.72887324 L80.3510638,10.6514085 L54.3031915,10.6514085 L54.3031915,10.6514085 Z" id="Shape" fill="#FF9702"></path>
                                <path d="M67.3712766,5.28169014 C66.5923128,5.28169014 65.9585106,5.91355634 65.9585106,6.69014085 C65.9585106,7.46672535 66.5923128,8.09859155 67.3712766,8.09859155 C68.1502404,8.09859155 68.7840426,7.46672535 68.7840426,6.69014085 C68.7840426,5.91355634 68.1502404,5.28169014 67.3712766,5.28169014 L67.3712766,5.28169014 Z" id="Shape" fill="#FFFFFF"></path>
                                <path d="M60.1308511,5.28169014 C59.3518872,5.28169014 58.7180851,5.91355634 58.7180851,6.69014085 C58.7180851,7.46672535 59.3518872,8.09859155 60.1308511,8.09859155 C60.9098149,8.09859155 61.543617,7.46672535 61.543617,6.69014085 C61.543617,5.91355634 60.9098149,5.28169014 60.1308511,5.28169014 L60.1308511,5.28169014 Z" id="Shape" fill="#FFFFFF"></path>
                                <path d="M74.6117021,5.28169014 C73.8327383,5.28169014 73.1989362,5.91355634 73.1989362,6.69014085 C73.1989362,7.46672535 73.8327383,8.09859155 74.6117021,8.09859155 C75.390666,8.09859155 76.0244681,7.46672535 76.0244681,6.69014085 C76.0244681,5.91355634 75.390666,5.28169014 74.6117021,5.28169014 L74.6117021,5.28169014 Z" id="Shape" fill="#FFFFFF"></path>
                            </g>
                        </g>
                    </g>
                </g>
            </g>
        </g>
    </g>
</svg>