<?xml version="1.0" encoding="UTF-8" standalone="no"?>
<svg width="240px" height="288px" viewBox="0 0 240 288" version="1.1" xmlns="http://www.w3.org/2000/svg" xmlns:xlink="http://www.w3.org/1999/xlink">
    <!-- Generator: Sketch 39.1 (31720) - http://www.bohemiancoding.com/sketch -->
    <title>Group 13</title>
    <desc>Created with Sketch.</desc>
    <defs>
        <path d="M155.021971,138.617417 C136.110326,138.617417 119.132141,146.803281 107.289705,159.74917 L86.2288136,142.757691 C93.3325487,134.330812 97.6310421,123.459365 97.6310421,111.606646 C97.6310421,98.4025278 92.3053986,86.4293021 83.6911488,77.683941 C96.25,68.2155382 109.551161,58.4889062 112.45135,56.8706701 C118.994036,66.0119826 129.671218,72.0373299 141.789862,72.0373299 C161.702762,72.0373299 177.904112,55.8807917 177.904112,36.0229687 C177.904112,16.1565382 161.702762,0 141.789862,0 C121.859699,0 105.658349,16.1565382 105.658349,36.0229687 C105.658349,42.2893299 107.427809,48.0908785 110.241682,53.2296389 C105.03688,56.3197812 88.0586943,69.0418715 80.4888575,74.7315208 C72.0127119,67.5269271 61.0334275,63.1456389 49.0442561,63.1456389 C22.2434087,63.1456389 0.431575643,84.8885347 0.431575643,111.606646 C0.431575643,138.324757 22.2261456,160.084868 49.0442561,160.084868 C62.0951036,160.084868 73.9461707,154.885854 82.6812618,146.502014 L81.4296924,148.051389 L102.766792,165.266667 C95.0156937,175.879885 90.3546767,188.937674 90.3546767,203.080024 C90.3546767,238.646788 119.373823,267.55124 155.01334,267.55124 C190.670119,267.55124 219.663371,238.646788 219.663371,203.080024 C219.680634,167.521868 190.678751,138.617417 155.021971,138.617417 L155.021971,138.617417 Z M109.663371,36.0315764 C109.663371,18.3600938 124.077997,3.99394444 141.798493,3.99394444 C159.518989,3.99394444 173.933616,18.3514861 173.933616,36.0315764 C173.933616,53.6944514 159.518989,68.0692083 141.798493,68.0692083 C124.069366,68.0692083 109.663371,53.6858438 109.663371,36.0315764 L109.663371,36.0315764 Z M5.80900816,111.615253 C5.80900816,87.8409549 25.1953861,68.4995903 49.0528876,68.4995903 C72.8931262,68.4995903 92.2795041,87.8409549 92.2795041,111.615253 C92.2708726,135.389552 72.8844947,154.739524 49.0528876,154.739524 C25.1953861,154.739524 5.80900816,135.389552 5.80900816,111.615253 Z M155.021971,260.44133 C123.309793,260.44133 97.5102009,234.713097 97.5102009,203.080024 C97.5102009,171.438344 123.309793,145.727326 155.021971,145.727326 C186.734149,145.727326 212.542373,171.438344 212.542373,203.080024 C212.551004,234.713097 186.734149,260.44133 155.021971,260.44133 L155.021971,260.44133 Z" id="path-1"></path>
        <filter x="-50%" y="-50%" width="200%" height="200%" filterUnits="objectBoundingBox" id="filter-2">
            <feOffset dx="0" dy="2" in="SourceAlpha" result="shadowOffsetOuter1"></feOffset>
            <feGaussianBlur stdDeviation="5" in="shadowOffsetOuter1" result="shadowBlurOuter1"></feGaussianBlur>
            <feColorMatrix values="0 0 0 0 1   0 0 0 0 1   0 0 0 0 1  0 0 0 0.5 0" type="matrix" in="shadowBlurOuter1"></feColorMatrix>
        </filter>
    </defs>
    <g id="Page-1" stroke="none" stroke-width="1" fill="none" fill-rule="evenodd">
        <g id="Desktop-HD-Copy" transform="translate(-840.000000, -2880.000000)">
            <g id="Group-14" transform="translate(636.000000, 2422.000000)">
                <g id="Group-13" transform="translate(214.000000, 466.000000)">
                    <g id="social-network">
                        <g id="Capa_1">
                            <g id="Shape">
                                <use fill="black" fill-opacity="1" filter="url(#filter-2)" xlink:href="#path-1"></use>
                                <use fill="#FFFEFB" fill-rule="evenodd" xlink:href="#path-1"></use>
                            </g>
                        </g>
                    </g>
                    <g id="woman" transform="translate(127.000000, 167.000000)" fill="#FF9702">
                        <path d="M46.9288283,48.4968575 L41.7156213,47.1908639 C42.3436785,46.9393607 43.0160708,46.6589158 43.6919292,46.3579222 C47.7869373,44.534162 49.5340599,43.1124017 49.5340599,41.6036717 C49.5340599,26.2509762 47.5176049,15.5432765 43.3695967,8.86860043 C39.6610409,2.90096976 34.1428311,0 26.5,0 C18.8571689,0 13.3389591,2.90096976 9.63040327,8.86860043 C5.4823951,15.5432765 3.46594005,26.2509762 3.46594005,41.6036717 C3.46594005,43.1124017 5.21306267,44.534162 9.30807084,46.3579222 C9.98392916,46.6589158 10.6563215,46.9393607 11.2843787,47.1908639 L6.07117166,48.4968575 C2.49648774,49.3921685 0,52.5961577 0,56.2882484 L0,63.5993521 C0,65.4744838 1.52241417,67 3.39373297,67 L49.606267,67 C51.4775858,67 53,65.4744838 53,63.5993521 L53,56.2882484 C53,52.5961577 50.5035123,49.3921685 46.9288283,48.4968575 L46.9288283,48.4968575 Z M17.2055041,47.9449395 C19.2343787,47.4367235 20.6512262,45.6181728 20.6512262,43.5226501 L20.6512262,42.5073758 C22.4650681,43.3714298 24.4377657,43.8466523 26.5,43.8466523 C28.5200654,43.8466523 30.5012834,43.3850324 32.3487738,42.5080994 L32.3487738,43.5227948 C32.3487738,45.6183175 33.7657657,47.4368683 35.7944959,47.9450842 L37.1560327,48.286162 C34.4933243,51.5561382 30.5204905,55.2286933 26.5,56.664635 C22.4795095,55.2285486 18.5066757,51.5559935 15.8439673,48.286162 L17.2055041,47.9449395 L17.2055041,47.9449395 Z M26.5,41.6760259 C18.8157221,41.6760259 12.5640327,33.8536674 12.5640327,24.2386609 L12.5640327,23.5488359 C18.5849482,18.0441274 30.3207657,17.2978661 34.9301771,17.2268143 C35.8183243,20.1722095 37.4117902,24.057486 40.1878638,27.3980799 C39.6115068,31.3179417 37.9656185,34.8913715 35.5255967,37.5027797 C33.0109128,40.1939222 29.8056403,41.6760259 26.5,41.6760259 L26.5,41.6760259 Z M5.63215259,41.5609827 C5.63590736,26.6495032 7.5453515,16.3300562 11.4692289,10.0159935 C14.7955204,4.66351836 19.5715858,2.17062635 26.5,2.17062635 C33.4284142,2.17062635 38.2044796,4.66351836 41.5307711,10.0158488 C45.4546485,16.3299114 47.3640926,26.6493585 47.3678474,41.560838 C47.3032943,41.7032311 46.7319918,42.6613456 42.5249183,44.5010238 C40.6027657,45.3414903 38.714406,46.015108 38.0053324,46.261257 L36.3198747,45.8389978 C35.2572752,45.5727343 34.5149864,44.6202635 34.5149864,43.5225054 L34.5149864,41.2447948 C35.432594,40.6024341 36.3015341,39.8477797 37.1069319,38.9858963 C39.9542016,35.9386263 41.8343297,31.7522117 42.4011553,27.197514 C42.4392807,26.8911663 42.3454114,26.5830821 42.1429428,26.3503909 C39.1657003,22.9263002 37.5868202,18.7479892 36.7864768,15.8457171 C36.6567929,15.37527 36.2296158,15.0495313 35.7425068,15.0495313 C33.3172153,15.0495313 28.4995586,15.2113153 23.4828992,16.294892 C17.848436,17.5118898 13.5557248,19.5337559 10.7241962,22.3043434 C10.5155177,22.5086717 10.3978202,22.7885378 10.3978202,23.0808488 L10.3978202,24.2385162 C10.3978202,31.4995508 13.6558038,37.8513823 18.4850136,41.2403089 L18.4850136,43.5225054 C18.4850136,44.6201188 17.7427248,45.5727343 16.6801253,45.8389978 L14.9946676,46.261257 C14.2877602,46.0159762 12.4083542,45.3455421 10.4877902,44.5065227 C6.26916349,42.6635162 5.69685014,41.7033758 5.63215259,41.5609827 L5.63215259,41.5609827 Z M50.8337875,63.5993521 C50.8337875,64.2776004 50.2831362,64.8293737 49.606267,64.8293737 L43.7574932,64.8293737 L43.7574932,59.4874622 C43.7574932,58.8880799 43.2725504,58.402149 42.6743869,58.402149 C42.0762234,58.402149 41.5912807,58.8880799 41.5912807,59.4874622 L41.5912807,64.8293737 L11.4087193,64.8293737 L11.4087193,59.4874622 C11.4087193,58.8880799 10.9237766,58.402149 10.3256131,58.402149 C9.72744959,58.402149 9.24250681,58.8880799 9.24250681,59.4874622 L9.24250681,64.8293737 L3.39373297,64.8293737 C2.71686376,64.8293737 2.16621253,64.2776004 2.16621253,63.5993521 L2.16621253,56.2882484 C2.16621253,53.594067 3.98799728,51.256013 6.59640599,50.6025097 L13.5347847,48.8644168 C17.8950817,54.5924104 22.8681281,57.7694838 26.1651035,58.8432203 C26.2738474,58.8786739 26.3869237,58.8963283 26.4998556,58.8963283 C26.6127875,58.8963283 26.7258638,58.8785292 26.8346076,58.8432203 C30.1315831,57.7694838 35.1046294,54.5924104 39.4649264,48.8644168 L46.4033052,50.6025097 C49.0120027,51.256013 50.8337875,53.594067 50.8337875,56.2882484 L50.8337875,63.5993521 L50.8337875,63.5993521 Z" id="Shape"></path>
                    </g>
                    <g id="lock" transform="translate(32.000000, 85.000000)">
                        <path d="M14.7991198,28.9222793 C14.2417865,28.9222793 13.7898437,29.3770957 13.7898437,29.9381953 L13.7898437,30.8342812 C13.7898437,31.3953809 14.2417865,31.8501973 14.7991198,31.8501973 C15.3564531,31.8501973 15.8083958,31.3953809 15.8083958,30.8342812 L15.8083958,29.9381953 C15.8083958,29.3770957 15.3564531,28.9222793 14.7991198,28.9222793 L14.7991198,28.9222793 Z" id="Shape" fill="#FFFFFF"></path>
                        <path d="M14.7991198,33.1756992 C14.2417865,33.1756992 13.7898437,33.6305156 13.7898437,34.1916152 L13.7898437,39.2523691 C13.7898437,39.8134688 14.2417865,40.2682852 14.7991198,40.2682852 C15.3564531,40.2682852 15.8083958,39.8134688 15.8083958,39.2523691 L15.8083958,34.1916152 C15.8083958,33.6305156 15.3564531,33.1756992 14.7991198,33.1756992 L14.7991198,33.1756992 Z" id="Shape" fill="#FFFFFF"></path>
                        <path d="M29.5375781,31.0043145 L29.5375781,23.0457246 C29.5375781,22.484625 29.0856354,22.0298086 28.5283021,22.0298086 L26.8468021,22.0298086 L26.8468021,12.1269434 C26.8468021,8.8792793 25.5835,5.82645117 23.2897448,3.53075391 C21.0130104,1.25228906 18.0006198,0 14.7999115,0 C14.7762604,0 14.7525104,9.9609375e-05 14.7288594,0.00019921875 C8.12438021,0.0383496094 2.7514375,5.53320117 2.7514375,12.2491641 L2.7514375,22.029709 L1.07003646,22.029709 C0.512703125,22.029709 0.0607604167,22.4845254 0.0607604167,23.045625 L0.0607604167,45.9670371 C0.0607604167,46.5281367 0.512703125,46.9829531 1.07003646,46.9829531 L19.957026,46.9829531 C21.7829062,49.4208926 24.6830781,51 27.9428646,51 C33.4548437,51 37.9392396,46.4861016 37.9392396,40.9378594 C37.9392396,35.935875 34.2943073,31.7751914 29.5375781,31.0043145 L29.5375781,31.0043145 Z M14.7404375,2.03203125 C14.7602292,2.03183203 14.779724,2.03183203 14.7995156,2.03183203 C17.4631771,2.03183203 19.9709792,3.07464258 21.866526,4.97160352 C23.7765208,6.88300781 24.828349,9.42414258 24.828349,12.1269434 L24.828349,22.0298086 L22.82375,22.0298086 L22.82375,12.2170898 C22.82375,7.75648242 19.2594688,4.09284961 14.8781875,4.0502168 C12.7210938,4.02959766 10.689875,4.86014062 9.15513021,6.39014062 C7.62008854,7.92043945 6.7746875,9.95784961 6.7746875,12.1271426 L6.7746875,22.0300078 L4.77008854,22.0300078 L4.77008854,12.2491641 L4.76998958,12.2491641 C4.76998958,6.64713281 9.24270833,2.06380664 14.7404375,2.03203125 L14.7404375,2.03203125 Z M20.805,12.2168906 L20.805,22.0296094 L8.79314062,22.0296094 L8.79314062,12.1268438 C8.79314062,10.5040078 9.42607812,8.97928711 10.5753802,7.83358008 C11.7102344,6.7022168 13.2079687,6.08135156 14.7988229,6.08135156 C14.8186146,6.08135156 14.8387031,6.08145117 14.8585937,6.08165039 C18.1374792,6.11372461 20.805,8.86593164 20.805,12.2168906 L20.805,12.2168906 Z M18.7770469,44.9512207 L2.0793125,44.9512207 L2.0793125,24.0616406 L3.76071354,24.0616406 L7.78386458,24.0616406 L21.814276,24.0616406 L25.8374271,24.0616406 L27.5189271,24.0616406 L27.5189271,30.8853809 C22.2028854,31.1098008 17.9464896,35.5325566 17.9464896,40.9378594 C17.9464896,42.3637676 18.2433646,43.7210449 18.7770469,44.9512207 L18.7770469,44.9512207 Z M27.9428646,48.968168 C23.5439687,48.968168 19.9650417,45.3658945 19.9650417,40.9378594 C19.9650417,36.5099238 23.5438698,32.9075508 27.9428646,32.9075508 C32.3418594,32.9075508 35.9206875,36.5098242 35.9206875,40.9378594 C35.9206875,45.3657949 32.3417604,48.968168 27.9428646,48.968168 L27.9428646,48.968168 Z" id="Shape" fill="#FF9702"></path>
                        <path d="M32.2634844,37.582418 C31.8692344,37.1855742 31.2303594,37.1855742 30.8361094,37.582418 L25.7462865,42.7057266 L24.3724479,41.32275 C23.9781979,40.9260059 23.3393229,40.9260059 22.944974,41.32275 C22.5508229,41.7194941 22.5508229,42.3627715 22.944974,42.7596152 L25.032599,44.8609746 C25.229724,45.0593965 25.4880052,45.1585078 25.7462865,45.1585078 C26.0045677,45.1585078 26.262849,45.0593965 26.459974,44.8609746 L32.2633854,39.0193828 C32.6576354,38.6225391 32.6576354,37.9792617 32.2634844,37.582418 L32.2634844,37.582418 Z" id="Shape" fill="#FFFFFF"></path>
                    </g>
                    <g id="man" transform="translate(127.000000, 14.000000)" fill="#FF9702">
                        <g id="Capa_1">
                            <g id="Group">
                                <path d="M8.466,14.581614 C8.466,17.096 9.36456133,19.6429474 10.9313181,21.5692632 C12.5760416,23.5913684 14.7213638,24.7050526 16.972079,24.7050526 C19.2223701,24.7050526 21.3650062,23.5920702 23.0053472,21.5710877 C24.5668732,19.6471579 25.4624657,17.1012632 25.4624657,14.5861754 L25.4624657,12.3356491 C27.1235177,7.10042105 26.5071351,2.67985965 25.9667401,1.4605614 C25.9658919,1.45866667 25.9648316,1.45691228 25.9639127,1.45501754 C25.9588233,1.44385965 25.9531684,1.43305263 25.9473721,1.42224561 C25.9441913,1.41635088 25.9411518,1.41024561 25.9377588,1.40449123 C25.932104,1.39487719 25.9259543,1.38568421 25.9198046,1.37649123 C25.915422,1.36996491 25.9112516,1.36329825 25.906657,1.35705263 C25.9011435,1.34954386 25.8952058,1.34238596 25.8892682,1.33515789 C25.8834012,1.32785965 25.877605,1.32049123 25.8714553,1.31361404 C25.8661538,1.3077193 25.860499,1.30224561 25.8549854,1.2965614 C25.8477048,1.28912281 25.8405655,1.28154386 25.8328607,1.27459649 C25.8272765,1.26947368 25.8213389,1.26477193 25.8155426,1.25985965 C25.8075551,1.25312281 25.7997089,1.24631579 25.791368,1.24007018 C25.7845114,1.23487719 25.7773015,1.23024561 25.7702328,1.22540351 C25.7625988,1.22021053 25.755106,1.21473684 25.7472599,1.20996491 C25.7382827,1.20442105 25.7289522,1.19950877 25.7196923,1.19452632 C25.7133306,1.19108772 25.7071809,1.18736842 25.7006778,1.18421053 C25.6896507,1.17873684 25.6781996,1.17396491 25.6667484,1.16919298 C25.661659,1.16708772 25.656711,1.16470175 25.6516216,1.16273684 C25.6393929,1.15803509 25.6268815,1.15417544 25.6142994,1.15031579 C25.6095634,1.14884211 25.6048274,1.14715789 25.6000915,1.14582456 C25.5881455,1.14252632 25.5759168,1.14 25.5636881,1.13747368 C25.5578212,1.1362807 25.5520249,1.13480702 25.5460873,1.13375439 C25.5356258,1.13192982 25.5249522,1.13080702 25.5143493,1.12961404 C25.5062204,1.12870175 25.4980915,1.12750877 25.4898919,1.12694737 C25.4814802,1.12638596 25.4729272,1.12631579 25.4644449,1.12610526 C25.4537713,1.12582456 25.4430977,1.12547368 25.4324241,1.12582456 C25.4257089,1.12603509 25.4189938,1.12666667 25.4122786,1.12708772 C25.3997672,1.12785965 25.3873264,1.12884211 25.374815,1.13052632 C25.3729064,1.13073684 25.3709979,1.13073684 25.3690894,1.13101754 C23.9509854,1.33207018 22.2340915,0.989824561 20.4163992,0.627508772 C17.3683451,0.0199298246 14.2191393,-0.606245614 11.75679,1.13698246 C11.7197505,1.12940351 11.6814387,1.12540351 11.6421372,1.12540351 C9.11659459,1.12540351 7.35276507,3.20315789 7.35276507,6.17817544 C7.35276507,8.47796491 8.3274553,12.7689825 8.46592931,13.3670175 L8.46592931,14.581614 L8.466,14.581614 Z M22.1246694,20.8665965 C20.7033139,22.6178246 18.8733929,23.5822456 16.972079,23.5822456 C15.0698462,23.5822456 13.237027,22.6168421 11.811289,20.8639298 C10.4040707,19.1337544 9.59697713,16.844 9.59697713,14.5816842 L9.59697713,13.9423158 C9.59697713,11.9424561 10.7393347,9.24189474 11.127684,8.38175439 C15.0349272,7.92596491 18.1475177,8.38133333 20.0886985,8.85214035 C21.7914553,9.26512281 22.90879,9.7597193 23.3116299,9.95396491 L24.3314886,12.3630877 L24.3314886,14.5862456 C24.3314886,16.8495439 23.5271518,19.1386667 22.1246694,20.8665965 L22.1246694,20.8665965 Z M11.6422079,2.248 C11.6967775,2.248 11.7494387,2.23992982 11.7994137,2.22554386 C11.9649605,2.27263158 12.1498753,2.24498246 12.2975385,2.13361404 C14.3738711,0.567859649 17.3325073,1.15782456 20.1938087,1.72814035 C21.6949688,2.0274386 23.1305322,2.31361404 24.4565322,2.31361404 C24.660815,2.31361404 24.8622703,2.30596491 25.0612516,2.29136842 C25.4091684,3.53733333 25.7388482,6.67901754 24.7906653,10.5496842 L24.2738794,9.32898246 C24.2246112,9.21263158 24.1373139,9.11614035 24.0259834,9.05508772 C23.8173181,8.94070175 18.8223576,6.26463158 10.6736674,7.30540351 C10.6722536,7.30554386 10.6709813,7.30596491 10.6696383,7.30610526 C10.6589647,7.30757895 10.6483617,7.30975439 10.6378295,7.31178947 C10.6297006,7.31333333 10.621501,7.31459649 10.6135135,7.31649123 C10.6067277,7.31810526 10.6000832,7.32035088 10.5932973,7.32224561 C10.5211268,7.34224561 10.4555301,7.37564912 10.3987692,7.41964912 C10.3632848,7.44701754 10.3306985,7.47859649 10.3021414,7.51459649 C10.300869,7.51621053 10.2993846,7.51768421 10.2981123,7.51936842 C10.2923867,7.52673684 10.2872266,7.53473684 10.2818545,7.54245614 C10.276553,7.55010526 10.2708981,7.55754386 10.2659501,7.56540351 C10.2624865,7.57094737 10.259447,7.57691228 10.2561247,7.58266667 C10.2499044,7.59333333 10.2437547,7.604 10.2382412,7.61508772 C10.2377464,7.61607018 10.2371102,7.61698246 10.2366154,7.61803509 C10.1928607,7.708 9.55279834,9.03438596 9.0546736,10.6563509 C8.7729896,9.17284211 8.4837422,7.36112281 8.4837422,6.17803509 C8.48381289,3.46322807 10.0701497,2.248 11.6422079,2.248 L11.6422079,2.248 Z" id="Shape"></path>
                                <path d="M32.8503617,29.0585965 C32.0879418,27.9499649 31.0246819,27.1802807 29.7755177,26.8328421 C29.7656216,26.8301053 29.7557256,26.8276491 29.7456881,26.8254737 L24.0726362,25.5731228 C23.5512557,25.4580351 23.1870811,25.0072982 23.1870811,24.4769825 L23.1870811,24.1436491 C23.1870811,23.833614 22.9338836,23.5822456 22.6215925,23.5822456 C22.3093015,23.5822456 22.056104,23.833614 22.056104,24.1436491 L22.056104,24.4769825 C22.056104,25.5374737 22.7843825,26.4389474 23.8271435,26.6691228 L23.8842578,26.6817544 C22.3018794,28.5950175 19.7209896,29.7578947 16.9664948,29.7578947 C14.2122827,29.7578947 11.6311809,28.5949474 10.0488025,26.6817544 L10.1058462,26.669193 C11.1486071,26.4390175 11.8768857,25.537614 11.8768857,24.4770526 L11.8768857,24.1437193 C11.8768857,23.8336842 11.6236881,23.5823158 11.3113971,23.5823158 C10.999106,23.5823158 10.7459085,23.8336842 10.7459085,24.1437193 L10.7459085,24.4770526 C10.7459085,25.0072982 10.3817339,25.4580351 9.86035343,25.573193 L4.18730146,26.8255439 C4.17726403,26.8277193 4.16736798,26.8301754 4.15747193,26.8329123 C2.90830769,27.1803509 1.84504782,27.9499649 1.08262786,29.0586667 C0.385239085,30.0727719 0.0012016632,31.2966316 0.0012016632,32.5049123 L0.0012016632,33.8974035 C0.0012016632,35.0201404 1.01590021,35.933614 2.26322661,35.933614 L31.669763,35.933614 C32.9170894,35.933614 33.9317879,35.0201404 33.9317879,33.8974035 L33.9317879,32.5049123 C33.9317879,31.2965614 33.5477505,30.0727018 32.8503617,29.0585965 L32.8503617,29.0585965 Z M32.8008108,33.8973333 C32.8008108,34.4009825 32.2934262,34.8107368 31.669763,34.8107368 L2.26322661,34.8107368 C1.63956341,34.8107368 1.13217879,34.4009825 1.13217879,33.8973333 L1.13217879,32.5048421 C1.13217879,30.6877895 2.27121414,28.5316491 4.44827443,27.9180351 L8.83172973,26.950386 C10.5848857,29.3818947 13.6712516,30.8806316 16.9664948,30.8806316 C20.2620208,30.8806316 23.3480333,29.3818947 25.1012599,26.9503158 L29.4847152,27.9179649 C31.6617755,28.5315789 32.8008108,30.6877193 32.8008108,32.5047719 L32.8008108,33.8973333 L32.8008108,33.8973333 Z" id="Shape"></path>
                            </g>
                        </g>
                    </g>
                </g>
            </g>
        </g>
    </g>
</svg>